<svg width="12487" height="9787" viewBox="0 0 12487 9787" fill="none" xmlns="http://www.w3.org/2000/svg">
<path d="M8427.06 284.033C7487.78 143.229 7323.43 2164.87 6384.24 2023.48C5808.07 1936.75 5779.69 1035.98 5202.97 1118.94C4652.83 1198.07 4770.82 1905.78 4316.85 2224.04C3069.48 3098.55 1515.41 -166.27 539.054 1219.26C-878.925 3231.49 3958.35 3351.17 3136.5 4907.68C2687.89 5757.31 906.72 5313.1 1068.95 6258.63C1312.93 7680.61 3726.68 5751.19 4643.07 6818.25C5255.92 7531.85 4385.56 8771.91 5254.26 9140.96C6266.19 9570.85 6258.57 7589.44 7289.31 7206.07C9127.41 6522.43 10423.6 10556.2 11876.1 9246.16C13332 7933.05 9510.47 6335.5 10234.5 4520.42C10585.7 3639.97 12320.9 3643.4 11969.7 2762.96C11597.3 1829.5 10066.3 3222.72 9214.05 2681.41C8366.97 2143.38 9421.6 433.12 8427.06 284.033Z" stroke="#3D4C4B" stroke-width="553.419" stroke-dasharray="36.89 36.89"/>
</svg>
