<svg width="247" height="302" viewBox="0 0 247 302" fill="none" xmlns="http://www.w3.org/2000/svg">
<path d="M246.73 74.4374C246.73 67.0915 240.144 60.6997 229.219 55.3901C240.144 50.1062 246.73 43.7137 246.73 36.3421C246.73 13.583 184.003 0 123.366 0C62.7285 0 0 13.583 0 36.3421C0 43.6879 6.58695 50.0804 17.5121 55.3901C6.58695 60.6739 0 67.0658 0 74.4374C0 81.809 6.58695 88.1757 17.5121 93.4853C6.58695 98.7691 0 105.161 0 112.533C0 119.904 6.58695 126.271 17.5121 131.581C6.58695 136.864 0 143.256 0 150.628C0 157.999 6.58695 164.366 17.5121 169.675C6.58695 174.959 0 181.352 0 188.723C0 196.095 6.58695 202.461 17.5121 207.77C6.58695 213.054 0 219.447 0 226.818C0 234.19 6.58695 240.556 17.5121 245.866C6.58695 251.15 0 257.542 0 264.914C0 287.673 62.7285 301.256 123.366 301.256C184.003 301.256 246.73 287.673 246.73 264.914C246.73 257.568 240.144 251.175 229.219 245.866C240.144 240.582 246.73 234.19 246.73 226.818C246.73 219.447 240.144 213.08 229.219 207.77C240.144 202.487 246.73 196.095 246.73 188.723C246.73 181.352 240.144 174.985 229.219 169.675C240.144 164.391 246.73 157.999 246.73 150.628C246.73 143.256 240.144 136.89 229.219 131.581C240.144 126.297 246.73 119.904 246.73 112.533C246.73 105.161 240.144 98.7949 229.219 93.4853C240.144 88.2015 246.73 81.809 246.73 74.4374ZM5.07036 36.3679C5.07036 21.2381 52.5868 5.05176 123.339 5.05176C194.091 5.05176 241.607 21.2381 241.607 36.3679C241.607 41.9868 235.047 47.7349 223.181 52.761C199.423 43.3274 160.976 38.0953 123.313 38.0953C85.6503 38.0953 47.2034 43.3532 23.4451 52.761C11.5791 47.7349 5.01803 41.961 5.01803 36.3679H5.07036ZM216.333 55.3901C195.555 62.5555 163.119 67.6847 123.366 67.6847C83.6117 67.6847 51.1753 62.5555 30.3966 55.3901C51.1753 48.2247 83.6117 43.0954 123.366 43.0954C163.119 43.0954 195.555 48.2247 216.333 55.3901ZM241.634 264.836C241.634 279.966 194.117 296.152 123.366 296.152C52.6136 296.152 5.09716 279.966 5.09716 264.836C5.09716 259.217 11.657 253.469 23.523 248.443C47.2812 257.877 85.7281 263.109 123.391 263.109C161.054 263.109 199.501 257.851 223.259 248.443C235.125 253.469 241.686 259.243 241.686 264.836H241.634ZM30.3711 245.788C51.1497 238.623 83.5849 233.494 123.339 233.494C163.093 233.494 195.529 238.623 216.308 245.788C195.529 252.954 163.093 258.083 123.339 258.083C83.5849 258.083 51.1497 252.954 30.3711 245.788ZM241.634 226.767C241.634 232.386 235.073 238.133 223.207 243.185C199.449 233.751 161.002 228.519 123.339 228.519C85.6758 228.519 47.2289 233.777 23.4707 243.185C11.6046 238.159 5.04484 232.386 5.04484 226.767C5.04484 221.148 11.6046 215.4 23.4707 210.374C47.2289 219.807 85.6758 225.04 123.339 225.04C161.002 225.04 199.449 219.782 223.207 210.374C235.073 215.4 241.634 221.174 241.634 226.767ZM30.3711 207.719C51.1497 200.553 83.5849 195.425 123.339 195.425C163.093 195.425 195.529 200.553 216.308 207.719C195.529 214.884 163.093 220.013 123.339 220.013C83.5849 220.013 51.1497 214.884 30.3711 207.719ZM241.634 188.672C241.634 194.29 235.073 200.038 223.207 205.065C199.449 195.631 161.002 190.398 123.339 190.398C85.6758 190.398 47.2289 195.657 23.4707 205.065C11.6046 200.038 5.04484 194.265 5.04484 188.672C5.04484 183.078 11.6046 177.305 23.4707 172.278C47.2289 181.712 85.6758 186.945 123.339 186.945C161.002 186.945 199.449 181.686 223.207 172.278C235.073 177.305 241.634 183.078 241.634 188.672ZM30.3711 169.65C51.1497 162.485 83.5849 157.355 123.339 157.355C163.093 157.355 195.529 162.485 216.308 169.65C195.529 176.815 163.093 181.944 123.339 181.944C83.5849 181.944 51.1497 176.815 30.3711 169.65ZM241.634 150.602C241.634 156.221 235.073 161.969 223.207 166.995C199.449 157.562 161.002 152.329 123.339 152.329C85.6758 152.329 47.2289 157.587 23.4707 166.995C11.6046 161.969 5.04484 156.195 5.04484 150.602C5.04484 145.009 11.6046 139.236 23.4707 134.21C47.2289 143.643 85.6758 148.875 123.339 148.875C161.002 148.875 199.449 143.617 223.207 134.21C235.073 139.236 241.634 145.009 241.634 150.602ZM30.3711 131.555C51.1497 124.389 83.5849 119.26 123.339 119.26C163.093 119.26 195.529 124.389 216.308 131.555C195.529 138.72 163.093 143.849 123.339 143.849C83.5849 143.849 51.1497 138.72 30.3711 131.555ZM241.634 112.533C241.634 118.152 235.073 123.9 223.207 128.926C199.449 119.492 161.002 114.259 123.339 114.259C85.6758 114.259 47.2289 119.518 23.4707 128.926C11.6046 123.9 5.04484 118.126 5.04484 112.533C5.04484 106.939 11.6046 101.166 23.4707 96.1402C47.2289 105.574 85.6758 110.806 123.339 110.806C161.002 110.806 199.449 105.548 223.207 96.1402C235.073 101.166 241.634 106.939 241.634 112.533ZM30.3711 93.4853C51.1497 86.3199 83.5849 81.1907 123.339 81.1907C163.093 81.1907 195.529 86.3199 216.308 93.4853C195.529 100.651 163.093 105.78 123.339 105.78C83.5849 105.78 51.1497 100.651 30.3711 93.4853ZM223.207 90.8562C199.475 81.4226 161.002 76.1905 123.339 76.1905C85.6758 76.1905 47.2289 81.4484 23.4707 90.8562C11.6046 85.8301 5.04484 80.0563 5.04484 74.4632C5.04484 68.87 11.6046 63.0968 23.4707 58.0707C47.2289 67.5043 85.6758 72.7365 123.339 72.7365C161.002 72.7365 199.449 67.4785 223.207 58.0707C235.073 63.0968 241.634 68.87 241.634 74.4632C241.634 80.0563 235.073 85.8301 223.207 90.8562Z" fill="url(#paint0_linear_397_89)" fill-opacity="0.34"/>
<defs>
<linearGradient id="paint0_linear_397_89" x1="123.365" y1="0" x2="123.365" y2="301.256" gradientUnits="userSpaceOnUse">
<stop stop-color="#10C3BD"/>
<stop offset="1" stop-color="#0A1F25"/>
</linearGradient>
</defs>
</svg>
