<svg width="306" height="78" viewBox="0 0 306 78" fill="none" xmlns="http://www.w3.org/2000/svg">
<path d="M304.386 15.1388C303.126 10.2835 299.869 6.23723 295.209 3.73516C288.068 -0.0969882 279.564 0.48896 273.996 2.30272C265.141 5.19544 258.843 11.7903 254.335 17.213C249.913 22.5427 246.011 28.2256 242.232 33.732C238.037 39.8523 234.021 45.6935 229.57 50.7069C229.542 50.2884 229.523 49.8606 229.504 49.4048C229.286 44.4844 229.504 39.071 229.646 35.1272C229.722 33.1925 229.779 31.6579 229.788 30.3743C231.256 24.068 230.233 17.25 226.928 12.0691C224.182 7.75331 220.157 4.57247 215.535 2.7587C215.09 2.49827 214.626 2.2564 214.162 2.02386C208.953 -0.515404 200.411 -1.92903 189.293 5.69807C183.98 9.3442 178.449 14.7296 172.379 22.1521C163.846 32.5882 156.582 44.3263 153.41 49.6746C153.41 49.5816 153.41 49.4979 153.4 49.4048C153.183 44.4844 153.4 39.071 153.542 35.1272C153.628 32.9135 153.694 31.2207 153.684 29.8348C154.972 23.6866 153.921 17.1105 150.711 12.0691C148.04 7.87422 144.176 4.75842 139.716 2.91675C139.176 2.60051 138.627 2.2936 138.068 2.02386C132.859 -0.515404 124.317 -1.92903 113.199 5.69807C107.886 9.3442 102.355 14.7296 96.2848 22.1521C87.6573 32.7091 80.3179 44.596 77.2021 49.8513C77.2021 49.7025 77.1832 49.5537 77.1832 49.4048C76.9654 44.4844 77.1832 39.071 77.3253 35.1272C77.4484 31.8903 77.5336 29.7512 77.4105 28.0862C76.5392 16.2642 70.5823 6.27458 61.8412 2.02386C56.6326 -0.515404 48.0904 -1.92903 36.9722 5.69807C31.6593 9.3442 26.1286 14.7296 20.0581 22.1521C10.3416 34.0485 2.24447 47.6376 0 51.5163L19.2532 62.2687C20.9673 59.3108 27.1514 48.8838 34.7561 39.0058C45.1072 25.5653 50.7894 22.5797 52.5319 21.9286C53.5547 22.9797 55.0132 25.6866 55.2973 29.5932C55.3257 30.235 55.2404 32.4766 55.1741 34.2811C54.9563 39.7875 54.6628 47.3214 55.2973 54.3253C55.9886 61.9338 57.9584 72.4908 67.1447 76.3973C69.1524 77.2531 71.1979 77.6808 73.2719 77.6808C78.7079 77.6808 84.3617 74.7787 90.1765 68.984C97.2508 61.9429 102.848 53.7858 108.255 45.8982C111.911 40.5686 115.368 35.5365 119.156 30.9788C120.538 29.3139 124.762 24.2352 128.635 22.961C128.853 22.8866 129.128 22.831 129.412 22.7938C130.312 24.1518 131.278 26.4956 131.505 29.6022C131.533 30.244 131.448 32.4857 131.382 34.2902C131.164 39.7966 130.871 47.3305 131.505 54.3344C132.196 61.9429 134.166 72.5003 143.352 76.4069C145.36 77.2626 147.406 77.6904 149.48 77.6904C154.916 77.6904 160.569 74.7883 166.384 68.9935C173.459 61.9524 179.055 53.7953 184.463 45.9078C188.119 40.5781 191.575 35.546 195.363 30.9884C196.746 29.3234 200.97 24.2448 204.843 22.9705C205.033 22.9054 205.269 22.8587 205.516 22.8215C206.415 24.1795 207.372 26.5144 207.599 29.6118C207.628 30.2536 207.542 32.4952 207.476 34.2997C207.258 39.8061 206.965 47.34 207.599 54.3439C208.29 61.9524 210.26 72.5094 219.446 76.416C221.454 77.2717 223.5 77.6994 225.574 77.6994C231.01 77.6994 236.663 74.7973 242.478 69.0026C249.553 61.9615 255.15 53.8044 260.557 45.9168C264.213 40.5872 267.669 35.5551 271.457 30.9975C272.84 29.3325 277.064 24.2539 280.937 22.9796C281.629 22.7564 282.471 22.6728 283.182 22.6821C283.646 29.0535 281.686 42.1966 279.261 52.2234L300.815 57.2551C301.98 52.4463 307.615 27.835 304.329 15.1665L304.386 15.1388Z" fill="url(#paint0_linear_398_94)"/>
<defs>
<linearGradient id="paint0_linear_398_94" x1="-1.48451e-07" y1="38.8497" x2="749" y2="78" gradientUnits="userSpaceOnUse">
<stop stop-color="#00FFFD" stop-opacity="0"/>
<stop offset="1" stop-color="#0E9F9B"/>
</linearGradient>
</defs>
</svg>
